<svg width="262" height="263" fill="none" xmlns="http://www.w3.org/2000/svg"><path d="M8.012 16h1.054V7.545H8.018l-2.25 1.617v1.113l2.15-1.558h.094V16zm3 0h1.142l1.5-2.385h.094L15.242 16h1.195l-2.173-3.2 2.144-3.116h-1.142l-1.483 2.35h-.093l-1.5-2.35h-1.202l2.186 3.158L11.012 16z" fill="#27282C" fill-opacity=".7"/><path d="M.529 1v260.442M22.274 1v260.442M44.019 1v260.442M65.764 1v260.442M87.51 1v260.442M109.255 1v260.442M131 1v260.442M152.745 1v260.442M174.49 1v260.442M196.236 1v260.442M217.981 1v260.442M239.726 1v260.442M261.471 1v260.442m0-260.384H.529M261.47 22.803H.529M261.47 44.548H.529M261.47 66.293H.529M261.47 88.038H.529m260.942 21.746H.529m260.942 21.745H.529m260.942 21.745H.529m260.942 21.745H.529m260.942 21.745H.529M261.47 218.51H.529m260.942 21.745H.529M261.47 262H.529" stroke="#000" stroke-opacity=".1" stroke-linecap="square"/><path d="M67.12 66H194.88c.673 0 1.121.452 1.121 1.13V195.87c0 .677-.448 1.129-1.121 1.129H67.121c-.673 0-1.121-.452-1.121-1.129V67.129c0-.677.448-1.129 1.12-1.129z" fill="#fff" stroke="#000" stroke-opacity=".5" stroke-linecap="round" stroke-dasharray="2 4"/><path d="M22 87.514c0 9.619 6.24 17.743 14.884 20.668l.195.065.584.195 75.718 23.073c.52.195 1.105.325 1.69.325a5.382 5.382 0 0 0 5.395-5.395c0-1.95-1.04-3.64-2.6-4.614l-59.99-50.956c-3.77-3.25-8.709-5.2-14.103-5.2C31.749 65.676 22 75.49 22 87.515z" fill="url(#paint0_linear)"/><path d="M105.582 24.535l-73.378 44.52C26.094 72.89 22 79.715 22 87.514c0 12.024 9.75 21.838 21.773 21.838 5.524 0 10.529-2.08 14.364-5.46l65.708-53.555c.195-.13.325-.26.52-.455 3.38-2.924 5.525-7.214 5.525-12.023 0-8.775-7.085-15.859-15.859-15.859-3.054 0-5.979.975-8.449 2.535z" fill="url(#paint1_linear)"/><path d="M98.303 37.858c0 4.81 2.145 9.165 5.524 12.024l.195.195 118.159 99.571c1.885 1.56 4.225 2.47 6.889 2.47 5.915 0 10.659-4.81 10.659-10.724 0-2.99-1.235-5.72-3.184-7.67L125.34 26.68c-2.86-2.86-6.824-4.68-11.179-4.68a15.838 15.838 0 0 0-15.858 15.858z" fill="url(#paint2_linear)"/><path d="M222.831 132.815L88.229 198.523c-7.085 3.575-11.894 10.919-11.894 19.433 0 12.024 9.749 21.773 21.773 21.773 4.744 0 9.099-1.559 12.674-4.094l124.463-85.402c2.794-1.95 4.614-5.135 4.614-8.774 0-5.915-4.809-10.724-10.659-10.724-2.469 0-4.614.78-6.369 2.08z" fill="url(#paint3_linear)"/><path d="M174.411 87.319H87.319v87.092h87.092V87.319z" fill="#010101"/><path d="M129.5 158.097H96.808v5.46H129.5v-5.46zm-34.057-48.29l2.405-2.275c.65.78 1.3 1.235 2.145 1.235.909 0 1.559-.65 1.559-1.885v-8.58h3.77v8.645c0 1.69-.455 2.925-1.365 3.835-.91.91-2.145 1.365-3.704 1.365-2.405-.065-3.835-1.04-4.81-2.34zm11.504-11.57h10.984v3.185h-7.214v2.08h6.499v2.99h-6.499v2.145h7.279v3.185h-11.049V98.238zm16.313 3.315h-4.094v-3.314h11.894v3.314h-4.03v10.27h-3.77v-10.27zm-26.322 15.664h6.434c1.69 0 2.925.455 3.705 1.235.52.585.845 1.3.845 2.21v.065c0 1.56-.91 2.534-2.08 3.054 1.625.52 2.73 1.495 2.73 3.315v.065c0 2.34-1.885 3.77-5.135 3.77h-6.434v-13.714h-.065zm7.279 4.16c0-.78-.585-1.17-1.69-1.17h-1.884v2.405h1.819c1.105 0 1.755-.39 1.755-1.235zm-1.3 3.899h-2.339v2.535h2.339c1.17 0 1.82-.455 1.82-1.235v-.065c.065-.78-.52-1.235-1.82-1.235zm6.825-8.059h6.044c2.08 0 3.51.52 4.42 1.43.78.78 1.235 1.82 1.235 3.185v.065c0 2.079-1.105 3.444-2.795 4.224l3.25 4.745h-4.355l-2.73-4.095h-1.235v4.095h-3.769v-13.649h-.065zm5.914 6.499c1.235 0 2.015-.649 2.015-1.624v-.065c0-1.105-.78-1.625-2.015-1.625h-2.08v3.314h2.08z" fill="#fff"/><path d="M126.64 117.086h3.64l5.784 13.714h-4.029l-.975-2.47h-5.265l-.975 2.47h-3.899l5.719-13.714zm3.315 8.319l-1.495-3.834-1.56 3.834h3.055zm10.464-8.254h-3.77v13.584h3.77v-13.584zm1.43 0h3.509l4.94 7.214v-7.214h3.704v13.584h-3.314l-5.07-7.41v7.41h-3.769v-13.584zm12.803 11.569l2.08-2.535c1.365 1.04 2.86 1.625 4.42 1.625 1.04 0 1.56-.325 1.56-.91v-.065c0-.585-.455-.845-2.34-1.3-2.925-.65-5.135-1.495-5.135-4.224v-.065c0-2.535 2.015-4.355 5.265-4.355 2.34 0 4.094.65 5.589 1.82l-1.885 2.665c-1.234-.91-2.599-1.365-3.834-1.365-.91 0-1.365.39-1.365.845v.065c0 .65.455.91 2.34 1.3 3.119.65 5.069 1.689 5.069 4.224v.065c0 2.795-2.21 4.42-5.524 4.42-2.275.065-4.55-.715-6.24-2.21z" fill="#fff"/><defs><linearGradient id="paint0_linear" x1="57.073" y1="98.258" x2="108.163" y2="139.63" gradientUnits="userSpaceOnUse"><stop stop-color="#EE3B8C"/><stop offset=".21" stop-color="#EE3B8C"/><stop offset=".857" stop-color="#5653A3"/><stop offset="1" stop-color="#5653A3"/></linearGradient><linearGradient id="paint1_linear" x1="22.021" y1="65.675" x2="129.945" y2="65.675" gradientUnits="userSpaceOnUse"><stop stop-color="#EE3B8C"/><stop offset=".021" stop-color="#EE3B8C"/><stop offset=".737" stop-color="#EE335A"/><stop offset="1" stop-color="#EE335A"/></linearGradient><linearGradient id="paint2_linear" x1="98.284" y1="87.09" x2="239.751" y2="87.09" gradientUnits="userSpaceOnUse"><stop stop-color="#EE335A"/><stop offset=".231" stop-color="#EE335A"/><stop offset=".857" stop-color="#FDB614"/><stop offset="1" stop-color="#FDB614"/></linearGradient><linearGradient id="paint3_linear" x1="76.31" y1="185.25" x2="239.751" y2="185.25" gradientUnits="userSpaceOnUse"><stop stop-color="#F7EE55"/><stop offset=".143" stop-color="#F7EE55"/><stop offset=".986" stop-color="#FDB614"/><stop offset="1" stop-color="#FDB614"/></linearGradient></defs></svg>